<?xml version="1.0" encoding="iso-8859-1"?>
<!-- Generator: Adobe Illustrator 18.0.0, SVG Export Plug-In . SVG Version: 6.00 Build 0)  -->
<!DOCTYPE svg PUBLIC "-//W3C//DTD SVG 1.1//EN" "http://www.w3.org/Graphics/SVG/1.1/DTD/svg11.dtd">
<svg version="1.1" id="Capa_1" xmlns="http://www.w3.org/2000/svg" xmlns:xlink="http://www.w3.org/1999/xlink" x="0px" y="0px"
	 viewBox="0 0 378 378" style="enable-background:new 0 0 378 378;" xml:space="preserve">
<path style="fill:#E2E0D0;" d="M354,20.815v60.37H248c-9.94,0-18,8.05-18,18c0,9.94-8.06,18-18,18H68c-9.94,0-18,8.05-18,18v170.79
	H0V20.815H354z"/>
<path style="fill:#B6CCE0;" d="M378,149.185v190c0,9.94-8.06,18-18,18H68c-9.94,0-18-8.06-18-18v-33.21v-170.79
	c0-9.95,8.06-18,18-18h144c9.94,0,18-8.06,18-18c0-9.95,8.06-18,18-18h106h6c9.94,0,18,8.05,18,18v18V149.185z"/>
<rect x="86" y="157.185" style="fill:#4D4D4D;" width="112" height="20"/>
<rect x="86" y="191.185" style="fill:#4D4D4D;" width="112" height="20"/>
<path style="fill:#9FBDD3;" d="M360,81.185h-6h-54.933l-166.98,276H360c9.94,0,18-8.06,18-18v-190v-32v-18
	C378,89.235,369.94,81.185,360,81.185z"/>
<g>
</g>
<g>
</g>
<g>
</g>
<g>
</g>
<g>
</g>
<g>
</g>
<g>
</g>
<g>
</g>
<g>
</g>
<g>
</g>
<g>
</g>
<g>
</g>
<g>
</g>
<g>
</g>
<g>
</g>
</svg>
