<?xml version="1.0" encoding="utf-8"?>
<!-- Generator: Adobe Illustrator 19.0.0, SVG Export Plug-In . SVG Version: 6.00 Build 0)  -->
<svg version="1.1" id="Layer_1" xmlns="http://www.w3.org/2000/svg" xmlns:xlink="http://www.w3.org/1999/xlink" x="0px" y="0px"
	 viewBox="0 0 500 500" style="enable-background:new 0 0 500 500;" xml:space="preserve">
<style type="text/css">
	.st0{fill:url(#XMLID_18_);}
</style>
<g id="XMLID_1_">
	
		<linearGradient id="XMLID_18_" gradientUnits="userSpaceOnUse" x1="-2.0205" y1="-2.4912" x2="7.1045" y2="-2.4912" gradientTransform="matrix(0 35.7617 -35.7617 0 160.9098 159.0934)">
		<stop  offset="0" style="stop-color:#F88A36"/>
		<stop  offset="1" style="stop-color:#FD2020"/>
	</linearGradient>
	<path id="XMLID_3_" class="st0" d="M403.6,311.6c20.3-80.5-28.6-174.8-111.7-224.8c36.9,49.9,51.7,109.1,38.8,161.9
		c-0.9,4.6-2.8,9.3-4.6,13.9c-15.9-11-89.6-56.4-178.2-146.1c-2.8-2.8,48,72.2,104.3,131.3c-26.8-15.7-101.6-69.4-148.7-112.8
		c5.5,9.3,12.9,18.5,20.3,28.7c39.7,50.9,90.5,111.9,152.4,159.1c-43.4,26.8-104.3,28.7-166.2,0c-15.7-6.5-28.6-15.7-42.5-25.9
		c25.9,40.7,65.6,76.8,113.6,97.1c57.3,25,115.9,25.2,163.4-3.7c20.3-10.2,60.9-21.3,83.1,21.3c4.6,12,15.7-43.5-25.9-94.3
		C402.7,315.3,402.7,313.5,403.6,311.6L403.6,311.6z"/>
</g>
</svg>
