<?xml version="1.0" encoding="iso-8859-1"?>
<!-- Generator: Adobe Illustrator 19.0.0, SVG Export Plug-In . SVG Version: 6.00 Build 0)  -->
<svg version="1.1" id="Capa_1" xmlns="http://www.w3.org/2000/svg" xmlns:xlink="http://www.w3.org/1999/xlink" x="0px" y="0px"
	 viewBox="0 0 512 512" style="enable-background:new 0 0 512 512;" xml:space="preserve">
<path style="fill:#09426D;" d="M437.019,74.98C388.667,26.629,324.38,0,256,0C187.619,0,123.332,26.629,74.979,74.98
	C26.628,123.332,0,187.62,0,256s26.628,132.667,74.979,181.019C123.332,485.371,187.619,512,256,512
	c68.38,0,132.667-26.629,181.019-74.981S512,324.38,512,256S485.371,123.333,437.019,74.98z"/>
<path style="fill:#012641;" d="M437.019,74.98C388.667,26.629,324.38,0,256,0v512c68.38,0,132.667-26.629,181.019-74.981
	S512,324.38,512,256S485.371,123.333,437.019,74.98z"/>
<g>
</g>
<g>
</g>
<g>
</g>
<g>
</g>
<g>
</g>
<g>
</g>
<g>
</g>
<g>
</g>
<g>
</g>
<g>
</g>
<g>
</g>
<g>
</g>
<g>
</g>
<g>
</g>
<g>
</g>
</svg>
